<?xml version="1.0" standalone="no"?><!DOCTYPE svg PUBLIC "-//W3C//DTD SVG 1.1//EN" "http://www.w3.org/Graphics/SVG/1.1/DTD/svg11.dtd"><svg t="1514949715442" class="icon" style="" viewBox="0 0 1024 1024" version="1.1" xmlns="http://www.w3.org/2000/svg" p-id="13651" xmlns:xlink="http://www.w3.org/1999/xlink" width="200" height="200"><defs><style type="text/css"></style></defs><path d="M512 558.545455a46.545455 46.545455 0 1 1 0-93.09091 46.545455 46.545455 0 0 1 0 93.09091z m201.69697 0a46.545455 46.545455 0 1 1 0-93.09091 46.545455 46.545455 0 0 1 0 93.09091z m-403.39394 0a46.545455 46.545455 0 1 1 0-93.09091 46.545455 46.545455 0 0 1 0 93.09091z m201.69697 465.454545C229.236364 1024 0 794.763636 0 512S229.236364 0 512 0s512 229.236364 512 512-229.236364 512-512 512z m0-77.575758c239.926303 0 434.424242-194.497939 434.424242-434.424242S751.926303 77.575758 512 77.575758 77.575758 272.073697 77.575758 512s194.497939 434.424242 434.424242 434.424242z" p-id="13652"></path></svg>